<svg xmlns="http://www.w3.org/2000/svg" width="243" height="65" viewBox="0 0 243 65">
  <g id="logo" transform="translate(-107 -206.079)">
    <g id="Group_147" data-name="Group 147" transform="translate(15 143)">
      <rect id="Rectangle_1" data-name="Rectangle 1" width="85" height="21" transform="translate(92 98.079)" fill="#c9d9d9" opacity="0.9"/>
      <text id="ROWFRUIT" transform="translate(99 116.079)" fill="#707070" font-size="49" font-family="SegoeUI, Segoe UI"><tspan x="0" y="0">ROWFRUIT</tspan></text>
      <path id="Path_1" data-name="Path 1" d="M18.971,0c15.219.236,19.1,9.71,19.1,21.689S29.518,37.5,18.971,37.5-.25,31.986-.25,20.008,3.752-.241,18.971,0Z" transform="translate(127.717 80.603)" fill="#f4a72d"/>
      <g id="Path_2" data-name="Path 2" transform="translate(152.694 85.156) rotate(-172)" fill="none">
        <path d="M3.968,0a4.5,4.5,0,0,1,2.99,1.053L0,.719A14.087,14.087,0,0,1,3.968,0Z" stroke="none"/>
        <path d="M 3.968147277832031 -4.291534423828125e-06 C 5.875687599182129 -4.291534423828125e-06 6.957877159118652 1.053195595741272 6.957877159118652 1.053195595741272 L -2.384185791015625e-06 0.7185556888580322 C -2.384185791015625e-06 0.7185556888580322 2.060607433319092 -4.291534423828125e-06 3.968147277832031 -4.291534423828125e-06 Z" stroke="none" fill="#707070"/>
      </g>
      <line id="Line_1" data-name="Line 1" y1="10.174" x2="3.391" transform="translate(148.449 73.971)" fill="none" stroke="#707070" stroke-width="1"/>
      <path id="Path_4" data-name="Path 4" d="M1.747.017C4.616-.525,3.415,12.05,3.415,12.05L.407,6.321S-1.122.559,1.747.017Z" transform="matrix(0.208, 0.978, -0.978, 0.208, 160.96, 73.971)" fill="#486f27"/>
      <path id="Path_10" data-name="Path 10" d="M3.721,0C5.921,0,8.8,1.784,8.8,1.784a20.579,20.579,0,0,0-4.628-.663c-2.2,0-4.295.887-4.171.663A4.865,4.865,0,0,1,3.721,0Z" transform="matrix(-0.588, 0.809, -0.809, -0.588, 162.095, 111.886)" fill="#fad787" opacity="0.712"/>
    </g>
  </g>
</svg>
